<?xml version="1.0" encoding="utf-8"?>
<!-- Generator: Adobe Illustrator 22.0.0, SVG Export Plug-In . SVG Version: 6.00 Build 0)  -->
<svg version="1.1" xmlns="http://www.w3.org/2000/svg" xmlns:xlink="http://www.w3.org/1999/xlink" x="0px" y="0px"
	 viewBox="0 0 1000 1000" style="enable-background:new 0 0 1000 1000;" xml:space="preserve">
<style type="text/css">
	.st0{opacity:0.5;}
	.st1{fill:url(#SVGID_1_);}
	.st2{fill:url(#SVGID_2_);}
	.st3{fill:url(#SVGID_3_);}
	.st4{fill:url(#SVGID_4_);}
	.st5{fill:url(#SVGID_5_);}
	.st6{fill:none;stroke:#4D4D4D;stroke-width:0.5;stroke-miterlimit:10;}
	.st7{fill:none;stroke:#4D4D4D;stroke-width:0.5;stroke-miterlimit:10;stroke-dasharray:2,2;}
	.st8{fill:none;stroke:#4D4D4D;stroke-width:0.5;stroke-miterlimit:10;stroke-dasharray:2.0011,2.0011;}
	.st9{fill:url(#SVGID_6_);}
	.st10{fill:url(#SVGID_7_);}
	.st11{fill:url(#SVGID_8_);}
	.st12{fill:url(#SVGID_9_);}
	.st13{fill:url(#SVGID_10_);}
	.st14{fill:url(#SVGID_11_);}
	.st15{fill:url(#SVGID_12_);}
	.st16{fill:#009588;}
	.st17{fill:#FFD200;}
	.st18{fill:#333333;}
	.st19{fill:url(#SVGID_13_);}
	.st20{fill:url(#SVGID_14_);}
	.st21{fill:url(#SVGID_15_);}
	.st22{fill:url(#SVGID_16_);}
	.st23{fill:url(#SVGID_17_);}
	.st24{fill:url(#SVGID_18_);}
	.st25{fill:url(#SVGID_19_);}
	.st26{fill:url(#SVGID_20_);}
	.st27{fill:url(#SVGID_21_);}
	.st28{fill:url(#SVGID_22_);}
	.st29{fill:url(#SVGID_23_);}
	.st30{fill:url(#SVGID_24_);}
	.st31{fill:url(#SVGID_25_);}
	.st32{fill:url(#SVGID_26_);}
	.st33{fill:url(#SVGID_27_);}
	.st34{fill:url(#SVGID_28_);}
	.st35{fill:url(#SVGID_29_);}
	.st36{fill:url(#SVGID_30_);}
	.st37{fill:url(#SVGID_31_);}
	.st38{fill:url(#SVGID_32_);}
	.st39{fill:url(#SVGID_33_);}
	.st40{fill:#4D4D4D;}
	.st41{fill:url(#SVGID_34_);}
	.st42{fill:url(#SVGID_35_);}
	.st43{fill:url(#SVGID_36_);}
	.st44{fill:url(#SVGID_37_);}
	.st45{fill:url(#SVGID_38_);}
	.st46{fill:url(#SVGID_39_);}
	.st47{fill:url(#SVGID_40_);}
	.st48{fill:url(#SVGID_41_);}
	.st49{fill:url(#SVGID_42_);}
	.st50{fill:url(#SVGID_43_);}
	.st51{fill:url(#SVGID_44_);}
	.st52{fill:url(#SVGID_45_);}
	.st53{fill:url(#SVGID_46_);}
	.st54{fill:url(#SVGID_47_);}
	.st55{fill:url(#SVGID_48_);}
	.st56{fill:url(#SVGID_49_);}
	.st57{fill:url(#SVGID_50_);}
	.st58{fill:url(#SVGID_51_);}
	.st59{fill:url(#SVGID_52_);}
	.st60{font-family:'BerkshireSwash-Regular';}
	.st61{font-size:52.5433px;}
</style>
<g id="GUIDES">
</g>
<g id="Showcase">
	<g class="st0">
		<linearGradient id="SVGID_1_" gradientUnits="userSpaceOnUse" x1="-2805.7107" y1="-519.1852" x2="-2564.2893" y2="-760.6066">
			<stop  offset="0" style="stop-color:#004D41"/>
			<stop  offset="1" style="stop-color:#009588"/>
		</linearGradient>
		<path class="st1" d="M-2710-864.9h-100c18.2,0,35.3,4.9,50,13.4c15.2,8.8,27.8,21.4,36.6,36.6c8.5,14.7,13.4,31.8,13.4,50v100v200
			c0,55.2,44.8,100,100,100v-100v-100v-200C-2610-820.1-2654.8-864.9-2710-864.9z"/>
		<linearGradient id="SVGID_2_" gradientUnits="userSpaceOnUse" x1="-2867.1875" y1="-781.8787" x2="-2718.9541" y2="-867.4613">
			<stop  offset="0" style="stop-color:#009588"/>
			<stop  offset="1" style="stop-color:#004D41"/>
		</linearGradient>
		<path class="st2" d="M-2723.4-814.9c-8.8-15.2-21.4-27.8-36.6-36.6c-14.7-8.5-31.8-13.4-50-13.4h-100c0,18.2,4.9,35.3,13.4,50
			c17.3,29.9,49.6,50,86.6,50h100C-2710-783.1-2714.9-800.2-2723.4-814.9z"/>
		<linearGradient id="SVGID_3_" gradientUnits="userSpaceOnUse" x1="-2314.2893" y1="-519.1852" x2="-2555.7107" y2="-760.6066">
			<stop  offset="0" style="stop-color:#F19921"/>
			<stop  offset="1" style="stop-color:#EEE739"/>
		</linearGradient>
		<path class="st3" d="M-2410-864.9c-55.2,0-100,44.8-100,100v200v100v100c55.2,0,100-44.8,100-100v-200v-100
			c0-37,20.1-69.3,50-86.6c14.7-8.5,31.8-13.4,50-13.4H-2410z"/>
		<linearGradient id="SVGID_4_" gradientUnits="userSpaceOnUse" x1="-2410" y1="-764.8959" x2="-2210" y2="-764.8959">
			<stop  offset="0" style="stop-color:#F19921"/>
			<stop  offset="1" style="stop-color:#EEE739"/>
		</linearGradient>
		<path class="st4" d="M-2310-864.9c-18.2,0-35.3,4.9-50,13.4c-29.9,17.3-50,49.6-50,86.6v100c0-18.2,4.9-35.3,13.4-50
			c17.3-29.9,49.6-50,86.6-50c18.2,0,35.3,4.9,50,13.4c15.2,8.8,27.8,21.4,36.6,36.6c8.5,14.7,13.4,31.8,13.4,50v-100
			C-2210-820.1-2254.8-864.9-2310-864.9z"/>
		<linearGradient id="SVGID_5_" gradientUnits="userSpaceOnUse" x1="-2206.1941" y1="-758.0904" x2="-2295.6543" y2="-603.1411">
			<stop  offset="0" style="stop-color:#F19921"/>
			<stop  offset="1" style="stop-color:#EEE739"/>
		</linearGradient>
		<path class="st5" d="M-2223.4-714.9c-8.8-15.2-21.4-27.8-36.6-36.6c-14.7-8.5-31.8-13.4-50-13.4v100c0,37,20.1,69.3,50,86.6
			c14.7,8.5,31.8,13.4,50,13.4v-100C-2210-683.1-2214.9-700.2-2223.4-714.9z"/>
	</g>
	<g>
		<g>
			<g>
				<polyline class="st6" points="-2610,-365.9 -2610,-364.9 -2611,-364.9 				"/>
				<line class="st7" x1="-2613" y1="-364.9" x2="-2708" y2="-364.9"/>
				<polyline class="st6" points="-2709,-364.9 -2710,-364.9 -2710,-365.9 				"/>
				<line class="st7" x1="-2710" y1="-367.9" x2="-2710" y2="-762.9"/>
				<polyline class="st6" points="-2710,-763.9 -2710,-764.9 -2709,-764.9 				"/>
				<line class="st7" x1="-2707" y1="-764.9" x2="-2612" y2="-764.9"/>
				<polyline class="st6" points="-2611,-764.9 -2610,-764.9 -2610,-763.9 				"/>
				<line class="st7" x1="-2610" y1="-761.9" x2="-2610" y2="-366.9"/>
			</g>
		</g>
		<g>
			<g>
				<polyline class="st6" points="-2410,-365.9 -2410,-364.9 -2411,-364.9 				"/>
				<line class="st7" x1="-2413" y1="-364.9" x2="-2508" y2="-364.9"/>
				<polyline class="st6" points="-2509,-364.9 -2510,-364.9 -2510,-365.9 				"/>
				<line class="st7" x1="-2510" y1="-367.9" x2="-2510" y2="-762.9"/>
				<polyline class="st6" points="-2510,-763.9 -2510,-764.9 -2509,-764.9 				"/>
				<line class="st7" x1="-2507" y1="-764.9" x2="-2412" y2="-764.9"/>
				<polyline class="st6" points="-2411,-764.9 -2410,-764.9 -2410,-763.9 				"/>
				<line class="st7" x1="-2410" y1="-761.9" x2="-2410" y2="-366.9"/>
			</g>
		</g>
		<g>
			<circle class="st8" cx="-2610" cy="-464.9" r="100"/>
		</g>
		<g>
			<circle class="st8" cx="-2510" cy="-464.9" r="100"/>
		</g>
		<g>
			<circle class="st8" cx="-2410" cy="-764.9" r="100"/>
		</g>
		<g>
			<circle class="st8" cx="-2310" cy="-764.9" r="100"/>
		</g>
		<g>
			<circle class="st8" cx="-2310" cy="-664.9" r="100"/>
		</g>
		<g>
			<circle class="st8" cx="-2210" cy="-664.9" r="100"/>
		</g>
		<g>
			<circle class="st8" cx="-2710" cy="-764.9" r="100"/>
		</g>
		<g>
			<circle class="st8" cx="-2810" cy="-764.9" r="100"/>
		</g>
		<g>
			<circle class="st8" cx="-2810" cy="-864.9" r="100"/>
		</g>
		<g>
			<g>
				<polyline class="st6" points="-2710,-765.9 -2710,-764.9 -2711,-764.9 				"/>
				<line class="st7" x1="-2713" y1="-764.9" x2="-2908" y2="-764.9"/>
				<polyline class="st6" points="-2909,-764.9 -2910,-764.9 -2910,-765.9 				"/>
				<line class="st7" x1="-2910" y1="-767.9" x2="-2910" y2="-862.9"/>
				<polyline class="st6" points="-2910,-863.9 -2910,-864.9 -2909,-864.9 				"/>
				<line class="st7" x1="-2907" y1="-864.9" x2="-2712" y2="-864.9"/>
				<polyline class="st6" points="-2711,-864.9 -2710,-864.9 -2710,-863.9 				"/>
				<line class="st7" x1="-2710" y1="-861.9" x2="-2710" y2="-766.9"/>
			</g>
		</g>
		<g>
			<g>
				<polyline class="st6" points="-2310,-765.9 -2310,-764.9 -2311,-764.9 				"/>
				<line class="st7" x1="-2313" y1="-764.9" x2="-2408" y2="-764.9"/>
				<polyline class="st6" points="-2409,-764.9 -2410,-764.9 -2410,-765.9 				"/>
				<line class="st7" x1="-2410" y1="-767.9" x2="-2410" y2="-862.9"/>
				<polyline class="st6" points="-2410,-863.9 -2410,-864.9 -2409,-864.9 				"/>
				<line class="st7" x1="-2407" y1="-864.9" x2="-2312" y2="-864.9"/>
				<polyline class="st6" points="-2311,-864.9 -2310,-864.9 -2310,-863.9 				"/>
				<line class="st7" x1="-2310" y1="-861.9" x2="-2310" y2="-766.9"/>
			</g>
		</g>
		<g>
			<g>
				<polyline class="st6" points="-2310,-763.9 -2310,-764.9 -2309,-764.9 				"/>
				<line class="st7" x1="-2307" y1="-764.9" x2="-2212" y2="-764.9"/>
				<polyline class="st6" points="-2211,-764.9 -2210,-764.9 -2210,-763.9 				"/>
				<line class="st7" x1="-2210" y1="-761.9" x2="-2210" y2="-566.9"/>
				<polyline class="st6" points="-2210,-565.9 -2210,-564.9 -2211,-564.9 				"/>
				<line class="st7" x1="-2213" y1="-564.9" x2="-2308" y2="-564.9"/>
				<polyline class="st6" points="-2309,-564.9 -2310,-564.9 -2310,-565.9 				"/>
				<line class="st7" x1="-2310" y1="-567.9" x2="-2310" y2="-762.9"/>
			</g>
		</g>
	</g>
</g>
<g id="Logo">
	<g id="Normal">
		<g>
			<linearGradient id="SVGID_6_" gradientUnits="userSpaceOnUse" x1="-1785.7107" y1="-431.3367" x2="-1544.2893" y2="-672.7581">
				<stop  offset="0" style="stop-color:#004D41"/>
				<stop  offset="1" style="stop-color:#009588"/>
			</linearGradient>
			<path class="st9" d="M-1690-777h-100c18.2,0,35.3,4.9,50,13.4c15.2,8.8,27.8,21.4,36.6,36.6c8.5,14.7,13.4,31.8,13.4,50v100v200
				c0,55.2,44.8,100,100,100v-100v-100v-200C-1590-732.3-1634.8-777-1690-777z"/>
			<linearGradient id="SVGID_7_" gradientUnits="userSpaceOnUse" x1="-1847.1876" y1="-694.0301" x2="-1698.9541" y2="-779.6127">
				<stop  offset="0" style="stop-color:#009588"/>
				<stop  offset="1" style="stop-color:#004D41"/>
			</linearGradient>
			<path class="st10" d="M-1703.4-727c-8.8-15.2-21.4-27.8-36.6-36.6c-14.7-8.5-31.8-13.4-50-13.4h-100c0,18.2,4.9,35.3,13.4,50
				c17.3,29.9,49.6,50,86.6,50h100C-1690-695.3-1694.9-712.3-1703.4-727z"/>
			<linearGradient id="SVGID_8_" gradientUnits="userSpaceOnUse" x1="-1294.2893" y1="-431.3367" x2="-1535.7107" y2="-672.7581">
				<stop  offset="0" style="stop-color:#F19921"/>
				<stop  offset="1" style="stop-color:#EEE739"/>
			</linearGradient>
			<path class="st11" d="M-1390-777c-55.2,0-100,44.8-100,100v200v100v100c55.2,0,100-44.8,100-100v-200v-100
				c0-37,20.1-69.3,50-86.6c14.7-8.5,31.8-13.4,50-13.4H-1390z"/>
			<linearGradient id="SVGID_9_" gradientUnits="userSpaceOnUse" x1="-1390" y1="-677.0474" x2="-1190" y2="-677.0474">
				<stop  offset="0" style="stop-color:#F19921"/>
				<stop  offset="1" style="stop-color:#EEE739"/>
			</linearGradient>
			<path class="st12" d="M-1290-777c-18.2,0-35.3,4.9-50,13.4c-29.9,17.3-50,49.6-50,86.6v100c0-18.2,4.9-35.3,13.4-50
				c17.3-29.9,49.6-50,86.6-50c18.2,0,35.3,4.9,50,13.4c15.2,8.8,27.8,21.4,36.6,36.6c8.5,14.7,13.4,31.8,13.4,50v-100
				C-1190-732.3-1234.8-777-1290-777z"/>
			<linearGradient id="SVGID_10_" gradientUnits="userSpaceOnUse" x1="-1186.1941" y1="-670.2419" x2="-1275.6542" y2="-515.2925">
				<stop  offset="0" style="stop-color:#F19921"/>
				<stop  offset="1" style="stop-color:#EEE739"/>
			</linearGradient>
			<path class="st13" d="M-1203.4-627c-8.8-15.2-21.4-27.8-36.6-36.6c-14.7-8.5-31.8-13.4-50-13.4v100c0,37,20.1,69.3,50,86.6
				c14.7,8.5,31.8,13.4,50,13.4v-100C-1190-595.3-1194.9-612.3-1203.4-627z"/>
		</g>
		<g>
			
				<linearGradient id="SVGID_11_" gradientUnits="userSpaceOnUse" x1="-1560.0973" y1="-901.5391" x2="-1469.3223" y2="-953.9481" gradientTransform="matrix(0.7071 0.7071 -0.7071 0.7071 -1135.7593 888.1736)">
				<stop  offset="0" style="stop-color:#009588"/>
				<stop  offset="1" style="stop-color:#004D41"/>
			</linearGradient>
			<path class="st14" d="M-1524.9-804.5c2.8-10.4,2.8-21.3,0-31.7c-2.7-10.1-8-19.6-15.9-27.4L-1584-907
				c-7.9,7.9-13.2,17.4-15.9,27.4c-5.5,20.4-0.2,43.1,15.9,59.2l43.3,43.3C-1532.8-784.9-1527.5-794.4-1524.9-804.5z"/>
			
				<linearGradient id="SVGID_12_" gradientUnits="userSpaceOnUse" x1="-1391.0511" y1="-1156.0266" x2="-1445.8346" y2="-1061.1388" gradientTransform="matrix(-0.7071 -0.7071 0.7071 -0.7071 -1748.9132 -2626)">
				<stop  offset="0" style="stop-color:#F19921"/>
				<stop  offset="1" style="stop-color:#EEE739"/>
			</linearGradient>
			<path class="st15" d="M-1556.6-836.2c-2.8,10.4-2.8,21.3,0,31.7c2.7,10.1,8,19.6,15.9,27.4l43.3-43.3c16-16,21.3-38.7,15.9-59.2
				c-2.7-10.1-8-19.6-15.9-27.4l-43.3,43.3C-1548.6-855.8-1553.9-846.3-1556.6-836.2z"/>
		</g>
	</g>
	<g id="Flat">
		<g>
			<path class="st16" d="M-670-777h-100c18.2,0,35.3,4.9,50,13.4c15.2,8.8,27.8,21.4,36.6,36.6c8.5,14.7,13.4,31.8,13.4,50v100v200
				c0,55.2,44.8,100,100,100v-100v-100v-200C-570-732.3-614.8-777-670-777z"/>
			<path class="st17" d="M-370-777c-55.2,0-100,44.8-100,100v200v100v100c55.2,0,100-44.8,100-100v-200v-100c0-37,20.1-69.3,50-86.6
				c14.7-8.5,31.8-13.4,50-13.4H-370z"/>
			<path class="st16" d="M-680-677c0-15.8-4.2-31.4-12-45c-7.9-13.7-19.3-25.1-33-33c-13.6-7.9-29.2-12-45-12h-90
				c0,18.2,4.9,35.3,13.4,50c17.3,29.9,49.6,50,86.6,50h80V-677z"/>
			<path class="st17" d="M-235-645c-13.6-7.9-29.2-12-45-12c-3.4,0-6.7,0.2-10,0.6v79.4c0,37,20.1,69.3,50,86.6
				c14.7,8.5,31.8,13.4,50,13.4v-90c0-15.8-4.2-31.4-12-45C-209.9-625.7-221.3-637.1-235-645z"/>
			<path class="st17" d="M-274.8-766.9c-14.2,0.7-28,4.8-40.2,11.9c-27.8,16.1-45,45.9-45,78v50c18.2-24.3,47.3-40,80-40
				c18.2,0,35.3,4.9,50,13.4c15.2,8.8,27.8,21.4,36.6,36.6c8.5,14.7,13.4,31.8,13.4,50v-100C-180-720.5-222-764.2-274.8-766.9z"/>
		</g>
		<g>
			<path class="st16" d="M-545.5-838.8c3.2-12,9.6-23,18.4-31.9l-36.3-36.3c-7.9,7.9-13.2,17.4-15.9,27.4
				c-5.5,20.4-0.2,43.1,15.9,59.2l17.7,17.7C-548.7-814.5-548.6-827-545.5-838.8z"/>
			<path class="st17" d="M-535.8-836.2c-2.8,10.4-2.8,21.3,0,31.7c2.7,10.1,8,19.6,15.9,27.4l43.3-43.3c16-16,21.3-38.7,15.9-59.2
				c-2.7-10.1-8-19.6-15.9-27.4l-43.3,43.3C-527.8-855.8-533.1-846.3-535.8-836.2z"/>
		</g>
	</g>
</g>
<g id="Icon_1_">
	<g id="Icon">
		<g>
			<path class="st16" d="M440-287.6c-44.9-5-80-43.2-80-89.4v-300c0-19.3-5.1-38.4-14.7-55c-8-13.9-19-25.8-32-35H350
				c49.6,0,90,40.4,90,90V-287.6z"/>
			<path class="st17" d="M560-677c0-49.6,40.4-90,90-90h36.7c-29.1,20.5-46.7,54.1-46.7,90v300c0,46.2-35.1,84.5-80,89.4V-677z"/>
			<path class="st16" d="M270-687c-32,0-61.9-17.2-78-45c-6.2-10.7-10.1-22.7-11.5-35H260c14.1,0,27.9,3.7,40,10.7
				c12.2,7,22.3,17.2,29.3,29.3c7,12.1,10.7,25.9,10.7,40H270z"/>
			<path class="st17" d="M820-507.6c-12.3-1.4-24.3-5.3-35-11.5c-27.8-16.1-45-45.9-45-78v-70c14.1,0,27.9,3.7,40,10.7
				c12.2,7,22.3,17.2,29.3,29.3c7,12.1,10.7,25.9,10.7,40V-507.6z"/>
			<path class="st17" d="M820-640.3c-9.2-13-21.1-24-35-32c-16.7-9.6-35.7-14.7-55-14.7c-26.1,0-50.5,8.9-70,25.1V-687
				c0-28.5,15.3-55,40-69.3c10.7-6.2,22.8-9.8,35.2-10.5c47.6,2.7,84.7,42.1,84.7,89.8V-640.3z"/>
		</g>
		<g>
			<path class="st16" d="M464.9-841.4c3.7-13.7,10.9-26.3,21-36.4L456.6-907c-7.9,7.9-13.2,17.4-15.9,27.4
				c-5.5,20.4-0.2,43.1,15.9,59.2l5.7,5.7C461.7-823.6,462.5-832.6,464.9-841.4z"/>
			<path class="st17" d="M484.2-836.2c-2.8,10.4-2.8,21.3,0,31.7c2.7,10.1,8,19.6,15.9,27.4l43.3-43.3c16-16,21.3-38.7,15.9-59.2
				c-2.7-10.1-8-19.6-15.9-27.4l-43.3,43.3C492.2-855.8,486.9-846.3,484.2-836.2z"/>
		</g>
	</g>
</g>
<g id="Minimal">
	<g id="Icon_2_">
		<g>
			<path class="st18" d="M1370-752c41.4,0,75,33.6,75,75v370.7c-11.7-4.1-22.2-11.2-30.7-20.6c-12.4-13.8-19.3-31.6-19.3-50.2v-300
				c0-22-5.8-43.6-16.7-62.5C1375.8-743.9,1373-748.1,1370-752L1370-752 M1370-767h-36.7c13,9.2,24,21.1,32,35
				c9.6,16.7,14.7,35.7,14.7,55v300c0,46.2,35.1,84.5,80,89.4V-677C1460-726.7,1419.6-767,1370-767L1370-767z"/>
			<path class="st18" d="M1670-752c-16,21.4-25,47.7-25,75v300c0,18.5-6.9,36.4-19.3,50.2c-8.5,9.4-19,16.4-30.7,20.6V-677
				C1595-718.4,1628.6-752,1670-752L1670-752 M1706.7-767H1670c-49.6,0-90,40.4-90,90v389.4c44.9-5,80-43.2,80-89.4v-300
				C1660-712.9,1677.7-746.6,1706.7-767L1706.7-767z"/>
			<path class="st18" d="M1280-752L1280-752c11.4,0,22.7,3,32.5,8.7c9.9,5.7,18.1,14,23.8,23.9c3.2,5.5,5.5,11.3,6.9,17.5H1290
				c-26.7,0-51.6-14.4-65-37.5c-2.3-3.9-4.2-8.1-5.7-12.5H1280 M1280-767h-79.4c1.4,12.3,5.3,24.3,11.5,35c16.1,27.8,45.9,45,78,45
				h70c0-14.1-3.7-27.9-10.7-40c-7-12.2-17.2-22.3-29.3-29.3C1307.9-763.3,1294.1-767,1280-767L1280-767z"/>
			<path class="st18" d="M1775-650.3c6.1,1.4,12,3.8,17.5,6.9c9.9,5.7,18.1,14,23.8,23.9c5.7,9.8,8.7,21,8.7,32.5v60.7
				c-4.3-1.5-8.5-3.5-12.5-5.7c-23.1-13.4-37.5-38.3-37.5-65V-650.3 M1760-667v70c0,32,17.2,61.9,45,78c10.7,6.2,22.7,10.1,35,11.5
				V-587c0-14.1-3.7-27.9-10.7-40c-7-12.2-17.2-22.3-29.3-29.3C1787.9-663.3,1774.1-667,1760-667L1760-667z"/>
			<path class="st18" d="M1755.3-751.9c39.2,2.7,69.7,35.4,69.7,74.8v0c-4-3-8.2-5.8-12.5-8.3c-18.9-11-40.6-16.7-62.5-16.7
				c-19.2,0-38,4.4-55,12.7c0.8-22.2,13.1-42.8,32.5-54C1735.9-748.2,1745.5-751.2,1755.3-751.9 M1755.3-766.9
				c-12.4,0.7-24.6,4.4-35.2,10.5c-24.7,14.3-40,40.8-40,69.3v25.1c19.5-16.2,43.9-25.1,70-25.1c19.3,0,38.4,5.1,55,14.7
				c13.9,8,25.8,19,35,32V-677C1840-724.8,1802.8-764.2,1755.3-766.9L1755.3-766.9z"/>
		</g>
		<g>
			<path class="st18" d="M1478.4-884l7.1,7.1c-4.5,6.2-8.3,13-11.2,20.2c-0.9-6.2-0.6-12.6,1-18.9
				C1476.1-878.5,1477.1-881.3,1478.4-884 M1476.6-907c-7.9,7.9-13.2,17.4-15.9,27.4c-5.5,20.4-0.2,43.1,15.9,59.2l5.7,5.7
				c-0.6-8.9,0.2-18,2.6-26.7c3.7-13.7,10.9-26.3,21-36.4L1476.6-907L1476.6-907z"/>
			<path class="st18" d="M1561.6-884c1.3,2.7,2.4,5.5,3.1,8.3c4.3,15.9-0.3,33-12,44.7l-30.9,30.9c-1.3-2.7-2.4-5.5-3.1-8.3
				c-2.1-7.8-2.1-16.1,0-24c2.1-7.8,6.2-15,12-20.7L1561.6-884 M1563.4-907l-43.3,43.3c-7.9,7.9-13.2,17.4-15.9,27.4
				c-2.8,10.4-2.8,21.3,0,31.7c2.7,10.1,8,19.6,15.9,27.4l43.3-43.3c16-16,21.3-38.7,15.9-59.2
				C1576.5-889.6,1571.2-899.1,1563.4-907L1563.4-907z"/>
		</g>
	</g>
</g>
<g id="Colors">
	
		<linearGradient id="SVGID_13_" gradientUnits="userSpaceOnUse" x1="165.3836" y1="-202.5348" x2="241.4515" y2="-202.5348" gradientTransform="matrix(4.489700e-11 -1 1 4.489700e-11 -1387.5487 -959.5486)">
		<stop  offset="0" style="stop-color:#004D41"/>
		<stop  offset="1" style="stop-color:#009588"/>
	</linearGradient>
	<rect x="-1628.1" y="-1201" class="st19" width="76.1" height="76.1"/>
	
		<linearGradient id="SVGID_14_" gradientUnits="userSpaceOnUse" x1="165.3836" y1="-302.7016" x2="241.4515" y2="-302.7016" gradientTransform="matrix(4.489700e-11 -1 1 4.489700e-11 -1387.5487 -959.5486)">
		<stop  offset="0" style="stop-color:#F19921"/>
		<stop  offset="1" style="stop-color:#EEE739"/>
	</linearGradient>
	<rect x="-1728.3" y="-1201" class="st20" width="76.1" height="76.1"/>
	<rect x="-1427.8" y="-1201" class="st16" width="76.1" height="76.1"/>
	<rect x="-1528" y="-1201" class="st17" width="76.1" height="76.1"/>
</g>
<g id="Banner">
	<g>
		<g>
			<g id="Normal_1_">
				<g>
					<linearGradient id="SVGID_15_" gradientUnits="userSpaceOnUse" x1="-975.7307" y1="627.0316" x2="-734.3093" y2="385.6102">
						<stop  offset="0" style="stop-color:#004D41"/>
						<stop  offset="1" style="stop-color:#009588"/>
					</linearGradient>
					<path class="st21" d="M-880,281.3h-100c18.2,0,35.3,4.9,50,13.4c15.2,8.8,27.8,21.4,36.6,36.6c8.5,14.7,13.4,31.8,13.4,50v100
						v200c0,55.2,44.8,100,100,100v-100v-100v-200C-780,326.1-824.8,281.3-880,281.3z"/>
					<linearGradient id="SVGID_16_" gradientUnits="userSpaceOnUse" x1="-1037.2075" y1="364.3382" x2="-888.9741" y2="278.7556">
						<stop  offset="0" style="stop-color:#009588"/>
						<stop  offset="1" style="stop-color:#004D41"/>
					</linearGradient>
					<path class="st22" d="M-893.4,331.3c-8.8-15.2-21.4-27.8-36.6-36.6c-14.7-8.5-31.8-13.4-50-13.4h-100c0,18.2,4.9,35.3,13.4,50
						c17.3,29.9,49.6,50,86.6,50h100C-880,363.1-884.9,346-893.4,331.3z"/>
					<linearGradient id="SVGID_17_" gradientUnits="userSpaceOnUse" x1="-484.3092" y1="627.0316" x2="-725.7306" y2="385.6102">
						<stop  offset="0" style="stop-color:#F19921"/>
						<stop  offset="1" style="stop-color:#EEE739"/>
					</linearGradient>
					<path class="st23" d="M-580,281.3c-55.2,0-100,44.8-100,100v200v100v100c55.2,0,100-44.8,100-100v-200v-100
						c0-37,20.1-69.3,50-86.6c14.7-8.5,31.8-13.4,50-13.4H-580z"/>
					<linearGradient id="SVGID_18_" gradientUnits="userSpaceOnUse" x1="-580.02" y1="381.3209" x2="-380.0199" y2="381.3209">
						<stop  offset="0" style="stop-color:#F19921"/>
						<stop  offset="1" style="stop-color:#EEE739"/>
					</linearGradient>
					<path class="st24" d="M-480,281.3c-18.2,0-35.3,4.9-50,13.4c-29.9,17.3-50,49.6-50,86.6v100c0-18.2,4.9-35.3,13.4-50
						c17.3-29.9,49.6-50,86.6-50c18.2,0,35.3,4.9,50,13.4c15.2,8.8,27.8,21.4,36.6,36.6c8.5,14.7,13.4,31.8,13.4,50v-100
						C-380,326.1-424.8,281.3-480,281.3z"/>
					<linearGradient id="SVGID_19_" gradientUnits="userSpaceOnUse" x1="-376.2141" y1="388.1264" x2="-465.6741" y2="543.0757">
						<stop  offset="0" style="stop-color:#F19921"/>
						<stop  offset="1" style="stop-color:#EEE739"/>
					</linearGradient>
					<path class="st25" d="M-393.4,431.3c-8.8-15.2-21.4-27.8-36.6-36.6c-14.7-8.5-31.8-13.4-50-13.4v100c0,37,20.1,69.3,50,86.6
						c14.7,8.5,31.8,13.4,50,13.4v-100C-380,463.1-384.9,446-393.4,431.3z"/>
				</g>
				<g>
					
						<linearGradient id="SVGID_20_" gradientUnits="userSpaceOnUse" x1="-238.9755" y1="-725.902" x2="-148.2005" y2="-778.3111" gradientTransform="matrix(0.7071 0.7071 -0.7071 0.7071 -1135.7593 888.1736)">
						<stop  offset="0" style="stop-color:#009588"/>
						<stop  offset="1" style="stop-color:#004D41"/>
					</linearGradient>
					<path class="st26" d="M-714.9,253.9c2.8-10.4,2.8-21.3,0-31.7c-2.7-10.1-8-19.6-15.9-27.4l-43.3-43.3
						c-7.9,7.9-13.2,17.4-15.9,27.4c-5.5,20.4-0.2,43.1,15.9,59.2l43.3,43.3C-722.9,273.4-717.6,263.9-714.9,253.9z"/>
					
						<linearGradient id="SVGID_21_" gradientUnits="userSpaceOnUse" x1="-2712.1729" y1="-1331.6636" x2="-2766.9563" y2="-1236.7759" gradientTransform="matrix(-0.7071 -0.7071 0.7071 -0.7071 -1748.9132 -2626)">
						<stop  offset="0" style="stop-color:#F19921"/>
						<stop  offset="1" style="stop-color:#EEE739"/>
					</linearGradient>
					<path class="st27" d="M-746.6,222.2c-2.8,10.4-2.8,21.3,0,31.7c2.7,10.1,8,19.6,15.9,27.4l43.3-43.3c16-16,21.3-38.7,15.9-59.2
						c-2.7-10.1-8-19.6-15.9-27.4l-43.3,43.3C-738.6,202.6-743.9,212.1-746.6,222.2z"/>
				</g>
			</g>
			<g>
				<linearGradient id="SVGID_22_" gradientUnits="userSpaceOnUse" x1="-1617.3807" y1="567.5003" x2="-1617.3807" y2="423.33">
					<stop  offset="0" style="stop-color:#004D41"/>
					<stop  offset="1" style="stop-color:#009588"/>
				</linearGradient>
				<path class="st28" d="M-1603,567.5h-28.8V452.2h-43.3v-28.9h115.3v28.9h-43.2V567.5z"/>
				<linearGradient id="SVGID_23_" gradientUnits="userSpaceOnUse" x1="-1520.5634" y1="567.5003" x2="-1520.5634" y2="459.8251">
					<stop  offset="0" style="stop-color:#004D41"/>
					<stop  offset="1" style="stop-color:#009588"/>
				</linearGradient>
				<path class="st29" d="M-1529.4,567.5h-27.4V459.8h6.6l9,12.8c4.4-4,9.5-7.1,15.1-9.3c5.6-2.2,11.5-3.3,17.5-3.3h24.2v27.3h-24.2
					c-2.9,0-5.6,0.5-8.1,1.6c-2.5,1.1-4.8,2.5-6.6,4.4c-1.9,1.9-3.4,4.1-4.4,6.6c-1.1,2.5-1.6,5.3-1.6,8.1V567.5z"/>
				<linearGradient id="SVGID_24_" gradientUnits="userSpaceOnUse" x1="-1424.2997" y1="569.5113" x2="-1424.2997" y2="455.7027">
					<stop  offset="0" style="stop-color:#004D41"/>
					<stop  offset="1" style="stop-color:#009588"/>
				</linearGradient>
				<path class="st30" d="M-1369.3,567.5h-6.6l-10.7-14.8c-2.6,2.3-5.4,4.5-8.3,6.6c-2.9,2-6,3.8-9.2,5.3c-3.2,1.5-6.5,2.7-9.9,3.6
					c-3.4,0.9-6.8,1.3-10.3,1.3c-7.6,0-14.7-1.3-21.4-3.8c-6.7-2.5-12.5-6.2-17.5-11.1c-5-4.9-8.9-10.8-11.8-17.8
					c-2.9-7-4.3-15-4.3-24c0-8.4,1.4-16.1,4.3-23.1c2.9-7,6.8-13,11.8-18c5-5,10.8-8.9,17.5-11.7c6.7-2.8,13.8-4.2,21.4-4.2
					c3.5,0,6.9,0.4,10.4,1.3c3.4,0.9,6.7,2.1,10,3.6c3.2,1.5,6.3,3.4,9.2,5.4c2.9,2.1,5.6,4.3,8.2,6.7l10.7-12.8h6.6V567.5z
					 M-1397,512.7c0-3.8-0.7-7.4-2.2-10.9c-1.4-3.5-3.4-6.6-5.9-9.4c-2.5-2.7-5.4-4.9-8.7-6.5c-3.3-1.6-6.9-2.5-10.6-2.5
					c-3.8,0-7.3,0.6-10.6,1.9c-3.3,1.3-6.2,3.2-8.6,5.6c-2.4,2.5-4.4,5.5-5.8,9.2c-1.4,3.7-2.1,7.8-2.1,12.5c0,4.7,0.7,8.9,2.1,12.5
					c1.4,3.7,3.3,6.7,5.8,9.2c2.4,2.5,5.3,4.4,8.6,5.6c3.3,1.3,6.9,1.9,10.6,1.9c3.8,0,7.3-0.8,10.6-2.5c3.3-1.6,6.2-3.8,8.7-6.5
					c2.5-2.7,4.4-5.8,5.9-9.4C-1397.7,520.1-1397,516.5-1397,512.7z"/>
				<linearGradient id="SVGID_25_" gradientUnits="userSpaceOnUse" x1="-1304.3083" y1="569.5113" x2="-1304.3083" y2="455.7027">
					<stop  offset="0" style="stop-color:#004D41"/>
					<stop  offset="1" style="stop-color:#009588"/>
				</linearGradient>
				<path class="st31" d="M-1254.3,481.2l-20.1,20.2c-1-2.8-2.4-5.3-4.1-7.6c-1.7-2.2-3.7-4.1-5.9-5.7c-2.2-1.5-4.5-2.7-7.1-3.5
					c-2.5-0.8-5.2-1.2-7.8-1.2c-3.8,0-7.3,0.8-10.6,2.3c-3.3,1.5-6.2,3.7-8.6,6.5c-2.4,2.8-4.4,6.1-5.8,9.9c-1.4,3.8-2.1,8-2.1,12.7
					c0,3.8,0.7,7.3,2.1,10.6c1.4,3.3,3.3,6.2,5.8,8.6c2.4,2.5,5.3,4.4,8.6,5.8c3.3,1.4,6.9,2.1,10.6,2.1c2.7,0,5.3-0.4,7.7-1.1
					c2.5-0.7,4.8-1.8,7-3.2c2.2-1.4,4.1-3,5.8-5c1.7-2,3.1-4.2,4.2-6.6l20.1,20.2c-2.5,3.6-5.5,6.9-8.8,9.8
					c-3.3,2.9-6.9,5.3-10.8,7.3c-3.9,2-7.9,3.5-12.2,4.6c-4.3,1-8.6,1.6-13.1,1.6c-7.6,0-14.7-1.4-21.4-4.3
					c-6.7-2.8-12.5-6.8-17.5-11.7c-5-5-8.9-10.8-11.8-17.4c-2.9-6.6-4.3-13.7-4.3-21.3c0-8.2,1.4-16,4.3-23.1
					c2.9-7.2,6.8-13.4,11.8-18.8c5-5.3,10.8-9.5,17.5-12.6c6.7-3.1,13.8-4.6,21.4-4.6c4.5,0,8.9,0.6,13.2,1.7
					c4.3,1.1,8.4,2.8,12.4,5c3.9,2.2,7.5,4.8,10.9,8C-1259.6,473.5-1256.7,477.2-1254.3,481.2z"/>
				<linearGradient id="SVGID_26_" gradientUnits="userSpaceOnUse" x1="-1226.9956" y1="567.5003" x2="-1226.9956" y2="412.2711">
					<stop  offset="0" style="stop-color:#004D41"/>
					<stop  offset="1" style="stop-color:#009588"/>
				</linearGradient>
				<path class="st32" d="M-1208.5,430.6c0,2.5-0.5,4.9-1.5,7.1c-1,2.2-2.3,4.1-4,5.8c-1.7,1.6-3.6,2.9-5.9,3.9
					c-2.2,1-4.6,1.5-7.2,1.5c-2.5,0-4.9-0.5-7.2-1.5c-2.2-1-4.2-2.3-5.8-3.9c-1.6-1.6-2.9-3.6-3.9-5.8c-1-2.2-1.5-4.6-1.5-7.1
					c0-2.5,0.5-4.8,1.5-7.1c1-2.2,2.3-4.2,3.9-5.8c1.6-1.6,3.6-2.9,5.8-3.9c2.2-1,4.6-1.5,7.2-1.5c2.5,0,4.9,0.5,7.2,1.5
					c2.2,1,4.2,2.3,5.9,3.9c1.7,1.6,3,3.6,4,5.8C-1209,425.7-1208.5,428.1-1208.5,430.6z M-1213.3,567.5h-27.6V459.8h27.6V567.5z"/>
				<linearGradient id="SVGID_27_" gradientUnits="userSpaceOnUse" x1="-1144.2537" y1="567.5003" x2="-1144.2537" y2="457.7136">
					<stop  offset="0" style="stop-color:#004D41"/>
					<stop  offset="1" style="stop-color:#009588"/>
				</linearGradient>
				<path class="st33" d="M-1164.9,567.5h-27.4V459.8h6.6l9,10.5c4.4-4,9.4-7.1,15-9.3c5.6-2.2,11.4-3.3,17.5-3.3
					c6.6,0,12.8,1.3,18.6,3.8c5.8,2.5,10.9,6,15.3,10.4c4.4,4.4,7.8,9.5,10.3,15.4c2.5,5.9,3.8,12.1,3.8,18.8v61.5h-27.4V506
					c0-2.8-0.5-5.5-1.6-8c-1.1-2.5-2.5-4.7-4.4-6.6c-1.9-1.9-4.1-3.4-6.5-4.4c-2.5-1.1-5.1-1.6-7.9-1.6c-2.9,0-5.6,0.5-8.1,1.6
					c-2.5,1.1-4.8,2.5-6.6,4.4c-1.9,1.9-3.4,4.1-4.4,6.6c-1.1,2.5-1.6,5.2-1.6,8V567.5z"/>
				<linearGradient id="SVGID_28_" gradientUnits="userSpaceOnUse" x1="-1027.3792" y1="608.7208" x2="-1027.3792" y2="455.7027">
					<stop  offset="0" style="stop-color:#004D41"/>
					<stop  offset="1" style="stop-color:#009588"/>
				</linearGradient>
				<path class="st34" d="M-972.4,553.9c0,7.6-1.4,14.7-4.3,21.3c-2.9,6.6-6.8,12.4-11.8,17.4c-5,5-10.8,8.9-17.5,11.8
					c-6.7,2.9-13.8,4.3-21.4,4.3l-13.8-0.2v-27.4l13.6,0.2c4.3,0,7.9-0.6,11-1.7c3-1.1,5.6-2.6,7.6-4.5c2.1-1.9,3.7-4.1,5-6.6
					c1.2-2.5,2.2-5.1,3-7.8c-1.1,1.7-2.6,3.2-4.6,4.3c-2,1.1-4.2,2-6.7,2.7c-2.4,0.7-5,1.2-7.6,1.5c-2.6,0.3-5.1,0.4-7.4,0.4
					c-7.6,0-14.7-1.3-21.4-3.9c-6.7-2.6-12.5-6.3-17.5-11.2c-5-4.9-8.9-10.8-11.8-17.8c-2.9-7-4.3-15-4.3-23.8
					c0-8.1,1.4-15.6,4.3-22.6c2.9-7,6.8-13,11.8-18.1c5-5.1,10.8-9.1,17.5-12c6.7-2.9,13.8-4.3,21.4-4.3c3.5,0,6.9,0.4,10.4,1.3
					c3.4,0.9,6.7,2.1,10,3.6c3.2,1.5,6.3,3.4,9.2,5.4c2.9,2.1,5.6,4.3,8.2,6.7L-979,460h6.6V553.9z M-1000,512.7
					c0-3.8-0.7-7.4-2.2-10.9c-1.4-3.5-3.4-6.6-5.9-9.4c-2.5-2.7-5.4-4.9-8.7-6.5c-3.3-1.6-6.9-2.5-10.6-2.5c-3.8,0-7.3,0.6-10.6,1.9
					c-3.3,1.3-6.2,3.2-8.6,5.6c-2.4,2.5-4.4,5.5-5.8,9.2c-1.4,3.7-2.1,7.8-2.1,12.5c0,4.5,0.7,8.5,2.1,12.1c1.4,3.6,3.3,6.7,5.8,9.2
					c2.4,2.5,5.3,4.5,8.6,5.9c3.3,1.4,6.9,2.1,10.6,2.1c3.8,0,7.3-0.8,10.6-2.5c3.3-1.6,6.2-3.8,8.7-6.5c2.5-2.7,4.4-5.8,5.9-9.4
					C-1000.8,520.1-1000,516.5-1000,512.7z"/>
				<linearGradient id="SVGID_29_" gradientUnits="userSpaceOnUse" x1="-1466.9774" y1="742.088" x2="-1466.9774" y2="597.9177">
					<stop  offset="0" style="stop-color:#F19921"/>
					<stop  offset="1" style="stop-color:#EEE739"/>
				</linearGradient>
				<path class="st35" d="M-1495.8,742.1h-28.9V597.9h57.7c5.3,0,10.4,0.7,15.3,2.1c4.9,1.4,9.5,3.3,13.7,5.8
					c4.3,2.5,8.1,5.5,11.7,9c3.5,3.5,6.5,7.4,9,11.7c2.5,4.3,4.5,8.9,5.8,13.8c1.4,4.9,2.1,10,2.1,15.3c0,7.9-1.5,15.4-4.5,22.4
					c-3,7-7.1,13.1-12.4,18.3c-5.2,5.2-11.3,9.3-18.3,12.4c-7,3-14.5,4.5-22.4,4.5h-28.9V742.1z M-1495.8,626.8v57.7h28.9
					c4,0,7.7-0.8,11.2-2.3c3.5-1.5,6.5-3.6,9.1-6.2c2.6-2.6,4.7-5.7,6.2-9.2c1.5-3.5,2.3-7.3,2.3-11.2c0-4-0.8-7.7-2.3-11.2
					c-1.5-3.5-3.6-6.6-6.2-9.2c-2.6-2.6-5.7-4.7-9.1-6.2c-3.5-1.5-7.2-2.3-11.2-2.3H-1495.8z"/>
				<linearGradient id="SVGID_30_" gradientUnits="userSpaceOnUse" x1="-1346.0815" y1="744.099" x2="-1346.0815" y2="630.2903">
					<stop  offset="0" style="stop-color:#F19921"/>
					<stop  offset="1" style="stop-color:#EEE739"/>
				</linearGradient>
				<path class="st36" d="M-1291.1,742.1h-6.6l-10.7-14.8c-2.6,2.3-5.4,4.5-8.3,6.6c-2.9,2-6,3.8-9.2,5.3c-3.2,1.5-6.5,2.7-9.9,3.6
					c-3.4,0.9-6.8,1.3-10.3,1.3c-7.6,0-14.7-1.3-21.4-3.8c-6.7-2.5-12.5-6.2-17.5-11.1c-5-4.9-8.9-10.8-11.8-17.8
					c-2.9-7-4.3-15-4.3-24c0-8.4,1.4-16.1,4.3-23.1c2.9-7,6.8-13,11.8-18c5-5,10.8-8.9,17.5-11.7c6.7-2.8,13.8-4.2,21.4-4.2
					c3.5,0,6.9,0.4,10.4,1.3c3.4,0.9,6.7,2.1,10,3.6c3.2,1.5,6.3,3.4,9.2,5.4c2.9,2.1,5.6,4.3,8.2,6.7l10.7-12.8h6.6V742.1z
					 M-1318.7,687.3c0-3.8-0.7-7.4-2.2-10.9c-1.4-3.5-3.4-6.6-5.9-9.4c-2.5-2.7-5.4-4.9-8.7-6.5c-3.3-1.6-6.9-2.5-10.6-2.5
					c-3.8,0-7.3,0.6-10.6,1.9c-3.3,1.3-6.2,3.2-8.6,5.6c-2.4,2.5-4.4,5.5-5.8,9.2c-1.4,3.7-2.1,7.8-2.1,12.5c0,4.7,0.7,8.9,2.1,12.5
					c1.4,3.7,3.3,6.7,5.8,9.2c2.4,2.5,5.3,4.4,8.6,5.6c3.3,1.3,6.9,1.9,10.6,1.9c3.8,0,7.3-0.8,10.6-2.5c3.3-1.6,6.2-3.8,8.7-6.5
					c2.5-2.7,4.4-5.8,5.9-9.4C-1319.5,694.7-1318.7,691-1318.7,687.3z"/>
				<linearGradient id="SVGID_31_" gradientUnits="userSpaceOnUse" x1="-1215.0815" y1="783.1075" x2="-1215.0815" y2="630.4922">
					<stop  offset="0" style="stop-color:#F19921"/>
					<stop  offset="1" style="stop-color:#EEE739"/>
				</linearGradient>
				<path class="st37" d="M-1242.5,783.1h-27.6V634.4h6.6l11,13c2.5-2.3,5.2-4.6,8.1-6.6c2.9-2.1,6-3.9,9.2-5.4
					c3.2-1.5,6.5-2.7,9.9-3.6c3.4-0.9,6.9-1.3,10.4-1.3c7.6,0,14.7,1.4,21.4,4.1c6.7,2.7,12.5,6.6,17.5,11.5c5,5,8.9,10.9,11.8,17.9
					c2.9,7,4.3,14.8,4.3,23.3c0,8.8-1.4,16.8-4.3,23.9c-2.9,7.1-6.8,13.1-11.8,18c-5,4.9-10.8,8.7-17.5,11.3
					c-6.7,2.6-13.8,3.9-21.4,3.9c-2.4,0-4.8-0.3-7.2-0.8c-2.4-0.5-4.7-1.3-7-2.2c-2.3-0.9-4.6-1.9-6.8-3.1c-2.2-1.1-4.4-2.3-6.5-3.5
					V783.1z M-1187.5,687.3c0-4.6-0.7-8.6-2.2-12.3c-1.4-3.6-3.4-6.7-5.9-9.2c-2.5-2.5-5.4-4.4-8.7-5.8c-3.4-1.3-6.9-2-10.7-2
					c-3.8,0-7.3,0.7-10.6,2c-3.3,1.3-6.2,3.3-8.7,5.8c-2.5,2.5-4.4,5.6-5.9,9.2c-1.4,3.6-2.2,7.7-2.2,12.3c0,4.4,0.7,8.3,2.2,12
					c1.4,3.6,3.4,6.7,5.9,9.2c2.5,2.5,5.4,4.5,8.7,5.9c3.3,1.4,6.9,2.1,10.6,2.1c3.8,0,7.3-0.7,10.7-2.1c3.4-1.4,6.3-3.4,8.7-5.9
					c2.5-2.5,4.4-5.6,5.9-9.2C-1188.3,695.6-1187.5,691.7-1187.5,687.3z"/>
				<linearGradient id="SVGID_32_" gradientUnits="userSpaceOnUse" x1="-1100.5192" y1="744.099" x2="-1100.5192" y2="630.2903">
					<stop  offset="0" style="stop-color:#F19921"/>
					<stop  offset="1" style="stop-color:#EEE739"/>
				</linearGradient>
				<path class="st38" d="M-1102,715.7c1.1,0.3,2.1,0.6,3.2,0.7c1.1,0.1,2.1,0.2,3.2,0.2c2.7,0,5.3-0.4,7.7-1.1
					c2.5-0.7,4.8-1.8,7-3.2c2.2-1.4,4.1-3,5.8-5c1.7-2,3.1-4.2,4.2-6.6l20.1,20.2c-2.5,3.6-5.5,6.9-8.8,9.8
					c-3.3,2.9-6.9,5.3-10.8,7.3c-3.9,2-7.9,3.5-12.2,4.6c-4.3,1-8.6,1.6-13.1,1.6c-7.6,0-14.7-1.4-21.4-4.2
					c-6.7-2.8-12.5-6.7-17.5-11.8c-5-5-8.9-11-11.8-17.9c-2.9-6.9-4.3-14.6-4.3-22.9c0-8.5,1.4-16.3,4.3-23.3c2.9-7,6.8-13,11.8-18
					c5-5,10.8-8.8,17.5-11.6c6.7-2.7,13.8-4.1,21.4-4.1c4.5,0,8.9,0.5,13.2,1.6c4.3,1.1,8.4,2.6,12.2,4.6c3.9,2,7.5,4.5,10.8,7.4
					c3.4,2.9,6.3,6.2,8.8,9.8L-1102,715.7z M-1087.9,659.1c-1.3-0.5-2.5-0.8-3.8-0.9c-1.2-0.1-2.5-0.2-3.9-0.2
					c-3.8,0-7.3,0.7-10.6,2.1c-3.3,1.4-6.2,3.3-8.6,5.9c-2.4,2.5-4.4,5.6-5.8,9.2c-1.4,3.6-2.1,7.6-2.1,12.1c0,1,0.1,2.1,0.2,3.4
					c0.1,1.3,0.3,2.6,0.5,3.9c0.2,1.3,0.5,2.6,0.9,3.8c0.3,1.2,0.8,2.3,1.3,3.2L-1087.9,659.1z"/>
				<linearGradient id="SVGID_33_" gradientUnits="userSpaceOnUse" x1="-1000.4848" y1="742.088" x2="-1000.4848" y2="634.4128">
					<stop  offset="0" style="stop-color:#F19921"/>
					<stop  offset="1" style="stop-color:#EEE739"/>
				</linearGradient>
				<path class="st39" d="M-1009.3,742.1h-27.4V634.4h6.6l9,12.8c4.4-4,9.5-7.1,15.1-9.3c5.6-2.2,11.5-3.3,17.5-3.3h24.2V662h-24.2
					c-2.9,0-5.6,0.5-8.1,1.6c-2.5,1.1-4.8,2.5-6.6,4.4c-1.9,1.9-3.4,4.1-4.4,6.6c-1.1,2.5-1.6,5.3-1.6,8.1V742.1z"/>
			</g>
		</g>
		<g>
			<text transform="matrix(1 0 0 1 -1449.9883 865.2612)" class="st40 st60" style="font-size:72px;">crafting ideas into designs</text>
			<g>
				<g>
					<g>
						<path class="st40" d="M-638.9,841.7c1.2-4.6,3.7-8.8,7-12.2l-13.8-13.8c-3,3-5,6.6-6,10.5c-2.1,7.8-0.1,16.5,6,22.6l6.8,6.8
							C-640.1,851-640.1,846.2-638.9,841.7z"/>
					</g>
					<g>
						<path class="st40" d="M-635.2,842.7c-1.1,4-1.1,8.1,0,12.1c1,3.8,3,7.5,6,10.5l16.5-16.5c6.1-6.1,8.1-14.8,6-22.6
							c-1-3.8-3-7.5-6-10.5l-16.5,16.5C-632.1,835.2-634.2,838.9-635.2,842.7z"/>
					</g>
				</g>
			</g>
		</g>
	</g>
	<g>
		<g id="With_Text">
			<g>
				<linearGradient id="SVGID_34_" gradientUnits="userSpaceOnUse" x1="249.0378" y1="543.2675" x2="495.619" y2="296.6863">
					<stop  offset="0" style="stop-color:#004D41"/>
					<stop  offset="1" style="stop-color:#009588"/>
				</linearGradient>
				<path class="st41" d="M346.8,190.2H244.7c18.6,0,36,5,51.1,13.7c15.5,9,28.4,21.9,37.4,37.4c8.7,15,13.7,32.5,13.7,51.1v102.1
					v204.3c0,56.4,45.7,102.1,102.1,102.1V598.7V496.6V292.3C448.9,235.9,403.2,190.2,346.8,190.2z"/>
				<linearGradient id="SVGID_35_" gradientUnits="userSpaceOnUse" x1="186.247" y1="274.9596" x2="337.6486" y2="187.5478">
					<stop  offset="0" style="stop-color:#009588"/>
					<stop  offset="1" style="stop-color:#004D41"/>
				</linearGradient>
				<path class="st42" d="M333.1,241.2c-9-15.5-21.9-28.4-37.4-37.4c-15-8.7-32.5-13.7-51.1-13.7H142.5c0,18.6,5,36,13.7,51.1
					c17.7,30.5,50.7,51.1,88.5,51.1h102.1C346.8,273.7,341.8,256.3,333.1,241.2z"/>
				<linearGradient id="SVGID_36_" gradientUnits="userSpaceOnUse" x1="750.9622" y1="543.2675" x2="504.381" y2="296.6863">
					<stop  offset="0" style="stop-color:#F19921"/>
					<stop  offset="1" style="stop-color:#EEE739"/>
				</linearGradient>
				<path class="st43" d="M653.2,190.2c-56.4,0-102.1,45.7-102.1,102.1v204.3v102.1v102.1c56.4,0,102.1-45.7,102.1-102.1V394.4
					V292.3c0-37.8,20.5-70.8,51.1-88.5c15-8.7,32.5-13.7,51.1-13.7H653.2z"/>
				<linearGradient id="SVGID_37_" gradientUnits="userSpaceOnUse" x1="653.2059" y1="292.3053" x2="857.4805" y2="292.3053">
					<stop  offset="0" style="stop-color:#F19921"/>
					<stop  offset="1" style="stop-color:#EEE739"/>
				</linearGradient>
				<path class="st44" d="M755.3,190.2c-18.6,0-36,5-51.1,13.7c-30.5,17.7-51.1,50.7-51.1,88.5v102.1c0-18.6,5-36,13.7-51.1
					c17.7-30.5,50.7-51.1,88.5-51.1c18.6,0,36,5,51.1,13.7c15.5,9,28.4,21.9,37.4,37.4c8.7,15,13.7,32.5,13.7,51.1V292.3
					C857.5,235.9,811.8,190.2,755.3,190.2z"/>
				<linearGradient id="SVGID_38_" gradientUnits="userSpaceOnUse" x1="861.3677" y1="299.2563" x2="769.9956" y2="457.5173">
					<stop  offset="0" style="stop-color:#F19921"/>
					<stop  offset="1" style="stop-color:#EEE739"/>
				</linearGradient>
				<path class="st45" d="M843.8,343.4c-9-15.5-21.9-28.4-37.4-37.4c-15-8.7-32.5-13.7-51.1-13.7v102.1c0,37.8,20.5,70.8,51.1,88.5
					c15,8.7,32.5,13.7,51.1,13.7V394.4C857.5,375.8,852.5,358.4,843.8,343.4z"/>
			</g>
			<g>
				
					<linearGradient id="SVGID_39_" gradientUnits="userSpaceOnUse" x1="564.2569" y1="-1660.3237" x2="656.9721" y2="-1713.8529" gradientTransform="matrix(0.7071 0.7071 -0.7071 0.7071 -1135.7593 888.1736)">
					<stop  offset="0" style="stop-color:#009588"/>
					<stop  offset="1" style="stop-color:#004D41"/>
				</linearGradient>
				<path class="st46" d="M515.5,162.1c2.8-10.6,2.8-21.8,0-32.4c-2.7-10.3-8.1-20-16.2-28L455,57.5c-8.1,8.1-13.5,17.8-16.2,28
					c-5.6,20.9-0.2,44.1,16.2,60.4l44.2,44.2C507.3,182.1,512.7,172.4,515.5,162.1z"/>
				
					<linearGradient id="SVGID_40_" gradientUnits="userSpaceOnUse" x1="-3516.104" y1="-397.3752" x2="-3572.0583" y2="-300.4594" gradientTransform="matrix(-0.7071 -0.7071 0.7071 -0.7071 -1748.9132 -2626)">
					<stop  offset="0" style="stop-color:#F19921"/>
					<stop  offset="1" style="stop-color:#EEE739"/>
				</linearGradient>
				<path class="st47" d="M483.1,129.7c-2.8,10.6-2.8,21.8,0,32.4c2.7,10.3,8.1,20,16.2,28l44.2-44.2c16.4-16.4,21.8-39.6,16.2-60.4
					c-2.7-10.3-8.1-20-16.2-28l-44.2,44.2C491.2,109.8,485.8,119.5,483.1,129.7z"/>
			</g>
		</g>
		<g>
			<linearGradient id="SVGID_41_" gradientUnits="userSpaceOnUse" x1="190.4765" y1="853.6968" x2="190.4765" y2="781.0881">
				<stop  offset="0" style="stop-color:#004D41"/>
				<stop  offset="1" style="stop-color:#009588"/>
			</linearGradient>
			<path class="st48" d="M197.7,853.7h-14.5v-58.1h-21.8v-14.5h58.1v14.5h-21.8V853.7z"/>
			<linearGradient id="SVGID_42_" gradientUnits="userSpaceOnUse" x1="239.2377" y1="853.6968" x2="239.2377" y2="799.4687">
				<stop  offset="0" style="stop-color:#004D41"/>
				<stop  offset="1" style="stop-color:#009588"/>
			</linearGradient>
			<path class="st49" d="M234.8,853.7H221v-54.2h3.3l4.6,6.4c2.2-2,4.8-3.6,7.6-4.7c2.8-1.1,5.8-1.6,8.8-1.6h12.2v13.8h-12.2
				c-1.5,0-2.8,0.3-4.1,0.8c-1.3,0.5-2.4,1.3-3.3,2.2c-0.9,0.9-1.7,2.1-2.2,3.3c-0.5,1.3-0.8,2.6-0.8,4.1V853.7z"/>
			<linearGradient id="SVGID_43_" gradientUnits="userSpaceOnUse" x1="287.7195" y1="854.709" x2="287.7195" y2="797.3923">
				<stop  offset="0" style="stop-color:#004D41"/>
				<stop  offset="1" style="stop-color:#009588"/>
			</linearGradient>
			<path class="st50" d="M315.4,853.7h-3.3l-5.4-7.4c-1.3,1.2-2.7,2.3-4.2,3.3c-1.5,1-3,1.9-4.6,2.7c-1.6,0.8-3.3,1.4-5,1.8
				c-1.7,0.4-3.4,0.7-5.2,0.7c-3.8,0-7.4-0.6-10.8-1.9c-3.4-1.3-6.3-3.1-8.8-5.6c-2.5-2.4-4.5-5.4-5.9-9c-1.5-3.5-2.2-7.6-2.2-12.1
				c0-4.2,0.7-8.1,2.2-11.6c1.5-3.5,3.4-6.6,5.9-9.1c2.5-2.5,5.5-4.5,8.8-5.9c3.4-1.4,6.9-2.1,10.8-2.1c1.8,0,3.5,0.2,5.2,0.7
				c1.7,0.4,3.4,1,5,1.8c1.6,0.8,3.2,1.7,4.6,2.7c1.5,1,2.8,2.2,4.1,3.4l5.4-6.4h3.3V853.7z M301.5,826.1c0-1.9-0.4-3.7-1.1-5.5
				c-0.7-1.8-1.7-3.3-3-4.7c-1.2-1.4-2.7-2.5-4.4-3.3c-1.7-0.8-3.5-1.2-5.3-1.2s-3.7,0.3-5.3,1c-1.7,0.6-3.1,1.6-4.4,2.8
				c-1.2,1.2-2.2,2.8-2.9,4.6c-0.7,1.8-1.1,3.9-1.1,6.3c0,2.4,0.4,4.5,1.1,6.3c0.7,1.8,1.7,3.4,2.9,4.6c1.2,1.2,2.7,2.2,4.4,2.8
				c1.7,0.6,3.4,1,5.3,1s3.7-0.4,5.3-1.2c1.7-0.8,3.1-1.9,4.4-3.3s2.2-2.9,3-4.7C301.1,829.8,301.5,828,301.5,826.1z"/>
			<linearGradient id="SVGID_44_" gradientUnits="userSpaceOnUse" x1="348.1507" y1="854.709" x2="348.1507" y2="797.3923">
				<stop  offset="0" style="stop-color:#004D41"/>
				<stop  offset="1" style="stop-color:#009588"/>
			</linearGradient>
			<path class="st51" d="M373.3,810.3l-10.1,10.2c-0.5-1.4-1.2-2.7-2.1-3.8c-0.9-1.1-1.9-2.1-3-2.9c-1.1-0.8-2.3-1.4-3.6-1.8
				s-2.6-0.6-4-0.6c-1.9,0-3.7,0.4-5.3,1.2s-3.1,1.9-4.4,3.3c-1.2,1.4-2.2,3.1-2.9,5c-0.7,1.9-1.1,4.1-1.1,6.4
				c0,1.9,0.4,3.7,1.1,5.3c0.7,1.7,1.7,3.1,2.9,4.4c1.2,1.2,2.7,2.2,4.4,2.9c1.7,0.7,3.5,1.1,5.3,1.1c1.4,0,2.6-0.2,3.9-0.6
				c1.2-0.4,2.4-0.9,3.5-1.6c1.1-0.7,2.1-1.5,2.9-2.5c0.9-1,1.6-2.1,2.1-3.3l10.1,10.2c-1.3,1.8-2.8,3.5-4.4,4.9
				c-1.7,1.5-3.5,2.7-5.4,3.7c-1.9,1-4,1.8-6.1,2.3c-2.1,0.5-4.3,0.8-6.6,0.8c-3.8,0-7.4-0.7-10.8-2.2c-3.4-1.4-6.3-3.4-8.8-5.9
				c-2.5-2.5-4.5-5.4-6-8.8c-1.5-3.3-2.2-6.9-2.2-10.7c0-4.2,0.7-8,2.2-11.6c1.5-3.6,3.4-6.8,6-9.4c2.5-2.7,5.5-4.8,8.8-6.4
				c3.4-1.6,6.9-2.3,10.8-2.3c2.3,0,4.5,0.3,6.7,0.9c2.2,0.6,4.3,1.4,6.2,2.5c2,1.1,3.8,2.4,5.5,4
				C370.7,806.4,372.1,808.2,373.3,810.3z"/>
			<linearGradient id="SVGID_45_" gradientUnits="userSpaceOnUse" x1="387.0876" y1="853.6968" x2="387.0876" y2="775.5178">
				<stop  offset="0" style="stop-color:#004D41"/>
				<stop  offset="1" style="stop-color:#009588"/>
			</linearGradient>
			<path class="st52" d="M396.4,784.7c0,1.3-0.2,2.5-0.7,3.6c-0.5,1.1-1.2,2.1-2,2.9c-0.8,0.8-1.8,1.5-3,2c-1.1,0.5-2.3,0.7-3.6,0.7
				s-2.5-0.2-3.6-0.7c-1.1-0.5-2.1-1.1-2.9-2c-0.8-0.8-1.5-1.8-2-2.9c-0.5-1.1-0.7-2.3-0.7-3.6c0-1.2,0.2-2.4,0.7-3.6
				c0.5-1.1,1.1-2.1,2-2.9c0.8-0.8,1.8-1.5,2.9-2c1.1-0.5,2.3-0.7,3.6-0.7s2.5,0.2,3.6,0.7c1.1,0.5,2.1,1.1,3,2
				c0.8,0.8,1.5,1.8,2,2.9C396.1,782.3,396.4,783.5,396.4,784.7z M394,853.7h-13.9v-54.2H394V853.7z"/>
			<linearGradient id="SVGID_46_" gradientUnits="userSpaceOnUse" x1="428.7595" y1="853.6968" x2="428.7595" y2="798.4045">
				<stop  offset="0" style="stop-color:#004D41"/>
				<stop  offset="1" style="stop-color:#009588"/>
			</linearGradient>
			<path class="st53" d="M418.4,853.7h-13.8v-54.2h3.3l4.6,5.3c2.2-2,4.8-3.6,7.6-4.7c2.8-1.1,5.8-1.6,8.8-1.6
				c3.3,0,6.4,0.6,9.4,1.9s5.5,3,7.7,5.2c2.2,2.2,3.9,4.8,5.2,7.7c1.3,3,1.9,6.1,1.9,9.4v31h-13.8v-31c0-1.4-0.3-2.8-0.8-4
				c-0.5-1.3-1.3-2.4-2.2-3.3c-0.9-0.9-2-1.7-3.3-2.2c-1.2-0.5-2.6-0.8-4-0.8c-1.5,0-2.8,0.3-4.1,0.8c-1.3,0.5-2.4,1.3-3.3,2.2
				s-1.7,2-2.2,3.3c-0.5,1.3-0.8,2.6-0.8,4V853.7z"/>
			<linearGradient id="SVGID_47_" gradientUnits="userSpaceOnUse" x1="487.6212" y1="874.4565" x2="487.6212" y2="797.3923">
				<stop  offset="0" style="stop-color:#004D41"/>
				<stop  offset="1" style="stop-color:#009588"/>
			</linearGradient>
			<path class="st54" d="M515.3,846.9c0,3.8-0.7,7.4-2.2,10.7c-1.5,3.3-3.4,6.3-6,8.8s-5.5,4.5-8.8,5.9c-3.4,1.5-6.9,2.2-10.8,2.2
				l-6.9-0.1v-13.8l6.8,0.1c2.2,0,4-0.3,5.5-0.8c1.5-0.6,2.8-1.3,3.8-2.3c1-1,1.9-2.1,2.5-3.3c0.6-1.2,1.1-2.6,1.5-4
				c-0.5,0.9-1.3,1.6-2.3,2.2c-1,0.6-2.1,1-3.4,1.4c-1.2,0.4-2.5,0.6-3.8,0.7c-1.3,0.1-2.6,0.2-3.7,0.2c-3.8,0-7.4-0.7-10.8-2
				c-3.4-1.3-6.3-3.2-8.8-5.6c-2.5-2.4-4.5-5.4-5.9-9c-1.5-3.5-2.2-7.5-2.2-12c0-4.1,0.7-7.9,2.2-11.4c1.5-3.5,3.4-6.5,5.9-9.1
				c2.5-2.6,5.5-4.6,8.8-6c3.4-1.5,6.9-2.2,10.8-2.2c1.8,0,3.5,0.2,5.2,0.7c1.7,0.4,3.4,1,5,1.8c1.6,0.8,3.2,1.7,4.6,2.7
				c1.5,1,2.8,2.2,4.1,3.4l5.4-6.4h3.3V846.9z M501.4,826.1c0-1.9-0.4-3.7-1.1-5.5c-0.7-1.8-1.7-3.3-3-4.7c-1.2-1.4-2.7-2.5-4.4-3.3
				c-1.7-0.8-3.5-1.2-5.3-1.2c-1.9,0-3.7,0.3-5.3,1c-1.7,0.6-3.1,1.6-4.4,2.8c-1.2,1.2-2.2,2.8-2.9,4.6c-0.7,1.8-1.1,3.9-1.1,6.3
				c0,2.3,0.4,4.3,1.1,6.1c0.7,1.8,1.7,3.4,2.9,4.6c1.2,1.3,2.7,2.3,4.4,3s3.4,1,5.3,1c1.9,0,3.7-0.4,5.3-1.2
				c1.7-0.8,3.1-1.9,4.4-3.3c1.2-1.4,2.2-2.9,3-4.7C501,829.8,501.4,828,501.4,826.1z"/>
			<linearGradient id="SVGID_48_" gradientUnits="userSpaceOnUse" x1="585.3696" y1="853.6968" x2="585.3696" y2="781.0881">
				<stop  offset="0" style="stop-color:#F19921"/>
				<stop  offset="1" style="stop-color:#EEE739"/>
			</linearGradient>
			<path class="st55" d="M570.9,853.7h-14.5v-72.6h29.1c2.7,0,5.2,0.3,7.7,1c2.5,0.7,4.8,1.7,6.9,2.9c2.1,1.3,4.1,2.8,5.9,4.6
				c1.8,1.8,3.3,3.7,4.6,5.9c1.3,2.2,2.2,4.5,2.9,6.9c0.7,2.5,1,5,1,7.7c0,4-0.8,7.7-2.3,11.3s-3.6,6.6-6.2,9.2
				c-2.6,2.6-5.7,4.7-9.2,6.2c-3.5,1.5-7.3,2.3-11.3,2.3h-14.5V853.7z M570.9,795.6v29.1h14.5c2,0,3.9-0.4,5.6-1.1
				c1.8-0.8,3.3-1.8,4.6-3.1c1.3-1.3,2.4-2.9,3.1-4.6c0.8-1.8,1.1-3.7,1.1-5.6c0-2-0.4-3.9-1.1-5.6c-0.8-1.8-1.8-3.3-3.1-4.6
				c-1.3-1.3-2.9-2.4-4.6-3.1c-1.8-0.8-3.6-1.1-5.6-1.1H570.9z"/>
			<linearGradient id="SVGID_49_" gradientUnits="userSpaceOnUse" x1="646.2556" y1="854.709" x2="646.2556" y2="797.3923">
				<stop  offset="0" style="stop-color:#F19921"/>
				<stop  offset="1" style="stop-color:#EEE739"/>
			</linearGradient>
			<path class="st56" d="M674,853.7h-3.3l-5.4-7.4c-1.3,1.2-2.7,2.3-4.2,3.3c-1.5,1-3,1.9-4.6,2.7c-1.6,0.8-3.3,1.4-5,1.8
				c-1.7,0.4-3.4,0.7-5.2,0.7c-3.8,0-7.4-0.6-10.8-1.9c-3.4-1.3-6.3-3.1-8.8-5.6c-2.5-2.4-4.5-5.4-5.9-9c-1.5-3.5-2.2-7.6-2.2-12.1
				c0-4.2,0.7-8.1,2.2-11.6c1.5-3.5,3.4-6.6,5.9-9.1c2.5-2.5,5.5-4.5,8.8-5.9c3.4-1.4,6.9-2.1,10.8-2.1c1.8,0,3.5,0.2,5.2,0.7
				c1.7,0.4,3.4,1,5,1.8c1.6,0.8,3.2,1.7,4.6,2.7c1.5,1,2.8,2.2,4.1,3.4l5.4-6.4h3.3V853.7z M660,826.1c0-1.9-0.4-3.7-1.1-5.5
				c-0.7-1.8-1.7-3.3-3-4.7c-1.2-1.4-2.7-2.5-4.4-3.3c-1.7-0.8-3.5-1.2-5.3-1.2s-3.7,0.3-5.3,1c-1.7,0.6-3.1,1.6-4.4,2.8
				c-1.2,1.2-2.2,2.8-2.9,4.6c-0.7,1.8-1.1,3.9-1.1,6.3c0,2.4,0.4,4.5,1.1,6.3c0.7,1.8,1.7,3.4,2.9,4.6c1.2,1.2,2.7,2.2,4.4,2.8
				c1.7,0.6,3.4,1,5.3,1s3.7-0.4,5.3-1.2c1.7-0.8,3.1-1.9,4.4-3.3c1.2-1.4,2.2-2.9,3-4.7C659.7,829.8,660,828,660,826.1z"/>
			<linearGradient id="SVGID_50_" gradientUnits="userSpaceOnUse" x1="712.2312" y1="874.3551" x2="712.2312" y2="797.4937">
				<stop  offset="0" style="stop-color:#F19921"/>
				<stop  offset="1" style="stop-color:#EEE739"/>
			</linearGradient>
			<path class="st57" d="M698.4,874.4h-13.9v-74.9h3.3l5.5,6.5c1.2-1.2,2.6-2.3,4.1-3.3c1.5-1,3-1.9,4.6-2.7c1.6-0.8,3.3-1.4,5-1.8
				c1.7-0.4,3.5-0.7,5.2-0.7c3.8,0,7.4,0.7,10.8,2.1c3.4,1.4,6.3,3.3,8.8,5.8c2.5,2.5,4.5,5.5,6,9c1.5,3.5,2.2,7.4,2.2,11.7
				c0,4.5-0.7,8.5-2.2,12c-1.5,3.6-3.4,6.6-6,9.1c-2.5,2.5-5.5,4.4-8.8,5.7c-3.4,1.3-6.9,2-10.8,2c-1.2,0-2.4-0.1-3.6-0.4
				c-1.2-0.3-2.4-0.6-3.5-1.1c-1.2-0.5-2.3-1-3.4-1.5c-1.1-0.6-2.2-1.2-3.3-1.8V874.4z M726.1,826.1c0-2.3-0.4-4.4-1.1-6.2
				c-0.7-1.8-1.7-3.4-3-4.6c-1.2-1.3-2.7-2.2-4.4-2.9s-3.5-1-5.4-1c-1.9,0-3.7,0.3-5.3,1s-3.1,1.6-4.4,2.9c-1.2,1.3-2.2,2.8-3,4.6
				c-0.7,1.8-1.1,3.9-1.1,6.2c0,2.2,0.4,4.2,1.1,6c0.7,1.8,1.7,3.4,3,4.7c1.2,1.3,2.7,2.3,4.4,3c1.7,0.7,3.5,1.1,5.3,1.1
				c1.9,0,3.7-0.4,5.4-1.1c1.7-0.7,3.2-1.7,4.4-3c1.2-1.3,2.2-2.8,3-4.7C725.7,830.3,726.1,828.3,726.1,826.1z"/>
			<linearGradient id="SVGID_51_" gradientUnits="userSpaceOnUse" x1="769.9286" y1="854.709" x2="769.9286" y2="797.3923">
				<stop  offset="0" style="stop-color:#F19921"/>
				<stop  offset="1" style="stop-color:#EEE739"/>
			</linearGradient>
			<path class="st58" d="M769.2,840.4c0.5,0.2,1.1,0.3,1.6,0.3s1.1,0.1,1.6,0.1c1.3,0,2.6-0.2,3.9-0.6c1.2-0.4,2.4-0.9,3.5-1.6
				c1.1-0.7,2.1-1.5,2.9-2.5c0.9-1,1.6-2.1,2.1-3.3L795,843c-1.3,1.8-2.8,3.5-4.4,4.9c-1.7,1.5-3.5,2.7-5.4,3.7
				c-1.9,1-4,1.8-6.1,2.3c-2.1,0.5-4.3,0.8-6.6,0.8c-3.8,0-7.4-0.7-10.8-2.1c-3.4-1.4-6.3-3.4-8.8-5.9c-2.5-2.5-4.5-5.5-5.9-9
				c-1.5-3.5-2.2-7.3-2.2-11.5c0-4.3,0.7-8.2,2.2-11.7c1.5-3.5,3.4-6.6,5.9-9.1c2.5-2.5,5.5-4.4,8.8-5.8c3.4-1.4,6.9-2.1,10.8-2.1
				c2.3,0,4.5,0.3,6.6,0.8c2.2,0.5,4.2,1.3,6.2,2.3c1.9,1,3.8,2.3,5.4,3.7c1.7,1.5,3.2,3.1,4.5,4.9L769.2,840.4z M776.3,811.9
				c-0.6-0.2-1.3-0.4-1.9-0.5c-0.6-0.1-1.3-0.1-1.9-0.1c-1.9,0-3.7,0.3-5.3,1c-1.7,0.7-3.1,1.7-4.4,3c-1.2,1.3-2.2,2.8-2.9,4.6
				c-0.7,1.8-1.1,3.8-1.1,6.1c0,0.5,0,1.1,0.1,1.7c0.1,0.6,0.1,1.3,0.3,1.9c0.1,0.7,0.3,1.3,0.4,1.9c0.2,0.6,0.4,1.1,0.7,1.6
				L776.3,811.9z"/>
			<linearGradient id="SVGID_52_" gradientUnits="userSpaceOnUse" x1="820.3088" y1="853.6968" x2="820.3088" y2="799.4687">
				<stop  offset="0" style="stop-color:#F19921"/>
				<stop  offset="1" style="stop-color:#EEE739"/>
			</linearGradient>
			<path class="st59" d="M815.9,853.7h-13.8v-54.2h3.3l4.6,6.4c2.2-2,4.8-3.6,7.6-4.7c2.8-1.1,5.8-1.6,8.8-1.6h12.2v13.8h-12.2
				c-1.5,0-2.8,0.3-4.1,0.8c-1.3,0.5-2.4,1.3-3.3,2.2c-0.9,0.9-1.7,2.1-2.2,3.3c-0.5,1.3-0.8,2.6-0.8,4.1V853.7z"/>
		</g>
		<g>
			<text transform="matrix(1 0 0 1 191.7031 928.7373)" class="st40 st60 st61">crafting ideas into designs</text>
			<g>
				<g>
					<g>
						<path class="st40" d="M783.6,911.6c0.9-3.3,2.7-6.4,5.1-8.9l-10.1-10.1c-2.2,2.2-3.7,4.8-4.4,7.6c-1.5,5.7,0,12,4.4,16.5
							l4.9,4.9C782.7,918.3,782.8,914.8,783.6,911.6z"/>
					</g>
					<g>
						<path class="st40" d="M786.3,912.3c-0.8,2.9-0.8,5.9,0,8.8c0.7,2.8,2.2,5.4,4.4,7.6l12.1-12.1c4.5-4.5,5.9-10.8,4.4-16.5
							c-0.7-2.8-2.2-5.4-4.4-7.6l-12.1,12.1C788.5,906.8,787.1,909.5,786.3,912.3z"/>
					</g>
				</g>
			</g>
		</g>
	</g>
</g>
</svg>
