<?xml version="1.0" encoding="utf-8"?>
<!-- Generator: Adobe Illustrator 22.0.0, SVG Export Plug-In . SVG Version: 6.00 Build 0)  -->
<svg version="1.1" id="Layer_1" xmlns="http://www.w3.org/2000/svg" xmlns:xlink="http://www.w3.org/1999/xlink" x="0px" y="0px"
	 viewBox="0 0 1000 1000" style="enable-background:new 0 0 1000 1000;" xml:space="preserve">
<style type="text/css">
	.st0{fill:#0B172A;}
	.st1{fill:#34D18E;}
	.st2{fill:#FFFFFF;}
</style>
<g id="GUIDES">
</g>
<g>
	<path class="st0" d="M103.6,56h316.6c26.3,0,47.6,21.3,47.6,47.6v316.6c0,26.3-21.3,47.6-47.6,47.6H103.6
		c-26.3,0-47.6-21.3-47.6-47.6V103.6C56,77.3,77.3,56,103.6,56z"/>
	<path class="st1" d="M579.8,56h316.6c26.3,0,47.6,21.3,47.6,47.6v316.6c0,26.3-21.3,47.6-47.6,47.6H579.8
		c-26.3,0-47.6-21.3-47.6-47.6V103.6C532.2,77.3,553.5,56,579.8,56z"/>
	<path class="st1" d="M103.6,532.2h316.6c26.3,0,47.6,21.3,47.6,47.6v316.6c0,26.3-21.3,47.6-47.6,47.6H103.6
		C77.3,944,56,922.7,56,896.4V579.8C56,553.5,77.3,532.2,103.6,532.2z"/>
	<g>
		<g>
			<path class="st2" d="M370.6,383.2h-43.4V206.1c0-3-0.6-5.8-1.7-8.5c-1.1-2.7-2.7-5-4.7-7c-2-2-4.4-3.6-7-4.7
				c-2.7-1.1-5.5-1.7-8.5-1.7c-3,0-5.8,0.6-8.4,1.7c-2.6,1.1-4.9,2.7-6.9,4.7c-2,2-3.5,4.4-4.6,7c-1.1,2.7-1.7,5.5-1.7,8.5v108.5
				h-43.6V206.1c0-3-0.6-5.8-1.7-8.5c-1.1-2.7-2.7-5-4.7-7c-2-2-4.4-3.6-7-4.7c-2.7-1.1-5.5-1.7-8.5-1.7c-3,0-5.8,0.6-8.4,1.7
				c-2.6,1.1-4.9,2.7-6.9,4.7c-2,2-3.5,4.4-4.6,7c-1.1,2.7-1.7,5.5-1.7,8.5v108.5h-43.6v-171h10.5l11.8,13.1
				c6.1-5.1,12.7-9.1,20-11.9c7.3-2.8,14.9-4.2,22.7-4.2c8,0,15.8,1.5,23.4,4.5c7.6,3,14.3,8.1,20,15.5c2.7-3.6,5.7-6.7,9.1-9.3
				c3.4-2.6,7-4.6,10.8-6.2c3.8-1.6,7.7-2.7,11.7-3.4c4-0.7,8-1,12-1c9,0,17.5,1.7,25.5,5.1c7.9,3.4,14.8,8.1,20.8,14
				c5.9,5.9,10.6,12.9,14,20.8c3.4,8,5.1,16.5,5.1,25.5V383.2z"/>
		</g>
		
			<rect x="196.7" y="296.4" transform="matrix(-1.836970e-16 1 -1 -1.836970e-16 579.947 143.1467)" class="st1" width="43.3" height="130.4"/>
	</g>
</g>
</svg>
